Coordinates
version=1
nRows=8
nColumns=34
inDegrees=yes

Units are S.I. units (second, meters, Newtons, ...)
If the header above contains a line with 'inDegrees', this indicates whether rotational values are in degrees (yes) or radians (no).

endheader
time	pelvis_tilt	pelvis_list	pelvis_rotation	pelvis_tx	pelvis_ty	pelvis_tz	hip_flexion_r	hip_adduction_r	hip_rotation_r	knee_angle_r	ankle_angle_r	subtalar_angle_r	mtp_angle_r	hip_flexion_l	hip_adduction_l	hip_rotation_l	knee_angle_l	ankle_angle_l	subtalar_angle_l	mtp_angle_l	lumbar_extension	lumbar_bending	lumbar_rotation	arm_flex_r	arm_add_r	arm_rot_r	elbow_flex_r	pro_sup_r	arm_flex_l	arm_add_l	arm_rot_l	elbow_flex_l	pro_sup_l
      4.15000000	     -7.04448554	      0.18529200	     -3.48448741	      1.14930563	      0.78174515	     -0.08170639	     28.15567671	     -0.12151350	    -11.17978903	     46.43967798	     16.06144439	    -16.72561949	      0.00000000	     29.37840556	     -4.91837144	     -7.82322332	     48.52548844	      9.29627253	    -19.64933601	      0.00000000	    -17.23400782	      2.42458576	     -0.36817761	     -6.26921059	    -11.40914749	     -0.06043106	     35.60341463	     82.41035587	     15.75267045	    -16.82920671	     27.07898951	     46.42590463	     86.05323630
      4.16666670	     -6.85963916	     -0.56270551	     -3.67626639	      1.14237897	      0.76610200	     -0.08527280	     32.17348062	      0.57687547	    -10.64806441	     54.66021966	     22.18204498	    -19.64593756	      0.00000000	     33.16646864	     -5.89927883	     -6.96979193	     56.98915458	     16.93450300	    -19.99083268	      0.00000000	    -20.01599007	      3.57655586	     -0.17713295	     -2.66509465	    -11.61042083	      0.78133614	     33.26798340	     81.63038912	     18.52967830	    -15.71371028	     26.19819306	     44.01357513	     85.68809703
      4.18333330	     -6.69176184	     -0.99824498	     -3.78153157	      1.13824614	      0.75562667	     -0.08747626	     35.98862141	      0.81918268	    -10.19799165	     61.34160721	     25.23685462	    -21.68451249	      0.00000000	     36.39967247	     -6.33661709	     -6.33392985	     63.27670654	     21.41491726	    -20.13688706	      0.00000000	    -23.25771230	      4.19290609	      0.10732642	      1.61823048	    -11.73429050	      1.81646843	     30.46227822	     81.02899549	     22.21267411	    -14.04098937	     25.26987537	     39.83293852	     85.19748835
      4.20000000	     -6.36606951	     -1.14899880	     -3.61500042	      1.13116113	      0.74875947	     -0.09004008	     39.65772016	      0.50212121	     -9.85200576	     67.11625282	     24.72958563	    -24.24414941	      0.00000000	     39.39497271	     -6.25124361	     -5.56024370	     68.26887267	     22.70626248	    -20.50793463	      0.00000000	    -27.21842583	      4.50304550	      0.24929738	      6.74615540	    -11.54127419	      2.58570108	     28.16840681	     80.49525818	     26.88478355	    -12.03085424	     24.38738756	     34.69316482	     84.56181640
      4.21666670	     -6.10594099	     -1.10352980	     -3.35577271	      1.12764758	      0.74190712	     -0.09350159	     42.66441492	     -0.14186096	     -9.42202509	     71.49106991	     23.41521500	    -25.52179728	      0.00000000	     42.71317513	     -5.80315280	     -4.42822564	     73.13033385	     21.73370368	    -20.93046749	      0.00000000	    -30.97283760	      4.46211374	      0.92926255	     11.77336691	    -11.37323853	      3.89000824	     26.60305938	     79.50826283	     32.30708002	     -9.39574472	     24.71414234	     29.23075933	     83.20307496
      4.23333330	     -5.62222267	     -1.13546181	     -2.18282114	      1.12921810	      0.74186797	     -0.09271678	     43.40147457	     -0.90675827	     -9.25649661	     73.15607831	     21.97480604	    -25.47763369	      0.00000000	     44.51462825	     -5.38374285	     -3.28673515	     75.67347642	     19.74587908	    -20.17672911	      0.00000000	    -34.58108593	      4.86578486	      0.92806158	     16.64171926	    -10.34998308	      4.07072376	     25.08533601	     79.15279894	     36.89597523	     -6.96382346	     24.69604978	     25.17831218	     82.30468737
      4.25000000	     -5.25384992	     -0.83313500	     -1.23399037	      1.13206219	      0.73834284	     -0.09756002	     43.11442905	     -2.06745358	     -9.12540410	     73.77276330	     21.19399958	    -24.78861107	      0.00000000	     45.12122303	     -4.92759498	     -2.89170789	     76.98225064	     19.11315463	    -18.23009659	      0.00000000	    -37.39733491	      5.02572151	      1.23913800	     21.20400419	     -9.77568163	      4.54818416	     24.09076708	     78.99004051	     40.65221148	     -4.31391007	     25.40712824	     22.45817248	     81.23620948
      4.26666670	     -4.59942590	     -0.53052796	     -0.16118295	      1.13242193	      0.74286906	     -0.10217380	     41.50588971	     -3.51090852	     -9.57099507	     72.79197163	     20.53141001	    -23.42082564	      0.00000000	     44.60863849	     -4.07320351	     -2.49210173	     76.79789593	     17.43744048	    -17.29795477	      0.00000000	    -40.23180104	      5.37535286	      1.62737248	     25.50682616	     -9.10038167	      4.90081885	     24.13155289	     78.98265850	     43.60357095	     -1.87387833	     26.06049594	     22.14766867	     80.70452731
